<?xml version="1.0" encoding="UTF-8" standalone="no"?>
<!-- Created with Inkscape (http://www.inkscape.org/) -->

<svg
   width="300"
   height="300"
   viewBox="0 0 300 300"
   version="1.1"
   id="svg1"
   inkscape:version="1.3.2 (091e20e, 2023-11-25, custom)"
   sodipodi:docname="icd_logo.svg"
   inkscape:export-filename="favicon.png"
   inkscape:export-xdpi="96"
   inkscape:export-ydpi="96"
   xmlns:inkscape="http://www.inkscape.org/namespaces/inkscape"
   xmlns:sodipodi="http://sodipodi.sourceforge.net/DTD/sodipodi-0.dtd"
   xmlns="http://www.w3.org/2000/svg"
   xmlns:svg="http://www.w3.org/2000/svg">
  <sodipodi:namedview
     id="namedview1"
     pagecolor="#ffffff"
     bordercolor="#111111"
     borderopacity="1"
     inkscape:showpageshadow="0"
     inkscape:pageopacity="0"
     inkscape:pagecheckerboard="1"
     inkscape:deskcolor="#d1d1d1"
     inkscape:document-units="px"
     inkscape:zoom="2.0942146"
     inkscape:cx="151.8469"
     inkscape:cy="155.9057"
     inkscape:window-width="3840"
     inkscape:window-height="2054"
     inkscape:window-x="2549"
     inkscape:window-y="-11"
     inkscape:window-maximized="1"
     inkscape:current-layer="layer1"
     showgrid="true"
     inkscape:export-bgcolor="#f8f4ee00" />
  <defs
     id="defs1" />
  <g
     inkscape:label="Layer 1"
     inkscape:groupmode="layer"
     id="layer1">
    <g
       id="g69"
       inkscape:label="icd gear"
       style="display:inline">
      <path
         d="M 186.875,4.6542969 C 184.19776,11.617512 179.62644,17.69344 173.67773,22.195312 166.81819,27.25282 158.52242,29.987285 150,30 141.50418,29.99181 133.23144,27.278696 126.38086,22.253906 120.55699,17.838385 116.0541,11.911542 113.36133,5.1171875 106.89708,6.679725 100.5438,8.6704695 94.34375,11.076172 81.271146,16.32754 69.003371,23.394431 57.902344,32.068359 c -5.243767,4.178229 -10.20152,8.70337 -14.839844,13.544922 4.490555,5.827242 7.287095,12.780071 8.082031,20.09375 C 52.073178,74.136847 50.298127,82.644779 46.076172,90 c -4.254526,7.352245 -10.740113,13.15986 -18.515625,16.58008 -6.735896,2.83597 -14.121054,3.77229 -21.3515626,2.70703 -1.878766,6.37987 -3.3313233,12.87853 -4.3476563,19.45117 C 0.73687162,135.77202 0.11480025,142.87787 0,150 c 0.11480025,7.12213 0.73687162,14.22798 1.8613281,21.26172 1.016337,6.57266 2.4688828,13.07127 4.3476563,19.45117 7.2305376,-1.06526 14.6156396,-0.12895 21.3515626,2.70703 7.775558,3.42024 14.261074,9.22779 18.515625,16.58008 4.221981,7.35526 5.997012,15.8631 5.068359,24.29297 -0.794907,7.31341 -3.591638,14.26672 -8.082031,20.09375 4.638157,4.84138 9.596266,9.36684 14.839844,13.54492 11.100672,8.67365 23.36922,15.74099 36.441406,20.99219 6.19987,2.40563 12.55351,4.39649 19.01758,5.95898 2.6927,-6.79416 7.19582,-12.72132 13.01953,-17.13672 6.85042,-5.02467 15.12353,-7.7379 23.61914,-7.74609 8.48156,0.0211 16.73762,2.73802 23.57422,7.75781 5.93554,4.345 10.55836,10.24316 13.35937,17.04492 6.51128,-1.5958 12.90882,-3.62651 19.14844,-6.07812 13.06198,-5.2765 25.31653,-12.3674 36.40039,-21.0625 5.18349,-4.16645 10.08454,-8.67338 14.66992,-13.49024 -4.5376,-5.72977 -7.41873,-12.59383 -8.33007,-19.8457 -0.92584,-8.44452 0.86105,-16.9651 5.10156,-24.32617 4.25462,-7.35241 10.73994,-13.15978 18.51562,-16.58008 6.73606,-2.83604 14.12088,-3.77231 21.35157,-2.70703 1.87881,-6.38002 3.33129,-12.87837 4.34765,-19.45117 C 299.26316,164.22781 299.8852,157.1223 300,150 c -0.0207,-7.12739 -0.5494,-14.24466 -1.58203,-21.29688 -0.93783,-6.56467 -2.31003,-13.06027 -4.10742,-19.44335 -7.38645,1.16846 -14.95293,0.24278 -21.83985,-2.67188 C 264.68223,103.17106 258.1853,97.360359 253.92383,90 c -4.24605,-7.376624 -6.02846,-15.915752 -5.08789,-24.375 0.92093,-7.414174 3.90005,-14.422519 8.59961,-20.230469 -4.62873,-4.748266 -9.56744,-9.184554 -14.78321,-13.279297 C 231.43192,23.297778 219.0102,16.126365 205.76367,10.818359 199.61066,8.3484973 193.30047,6.2892525 186.875,4.6542969 Z m 8.70898,23.6562501 c 13.43409,5.017698 25.9458,12.223911 37.02735,21.326172 -6.14691,16.556582 -4.68715,34.981213 3.99023,50.363281 8.97259,15.19082 24.17697,25.66308 41.56836,28.63086 1.19754,7.06034 1.80968,14.20799 1.83008,21.36914 -0.0331,7.16354 -0.65829,14.31251 -1.86914,21.37305 -17.37614,2.97754 -32.56443,13.44712 -41.5293,28.62695 -8.66266,15.35354 -10.13484,33.74109 -4.02539,50.27734 -10.97744,9.02343 -23.36112,16.18654 -36.65625,21.20313 C 184.53879,257.88831 167.72784,250.02446 150,250 c -17.62758,0.17398 -34.28815,8.09211 -45.55469,21.65039 C 91.142648,266.65562 78.747567,259.51286 67.755859,250.50781 73.835707,233.85529 72.239749,215.36449 63.396484,200 54.432183,184.82089 39.244281,174.35108 21.869141,171.37305 20.658322,164.31268 20.033092,157.16336 20,150 20.03309,142.83664 20.658322,135.68732 21.869141,128.62695 39.244177,125.64894 54.432237,115.17902 63.396484,100 72.239696,84.635601 73.835671,66.144606 67.755859,49.492187 78.747918,40.486848 91.142222,33.344535 104.44531,28.349609 115.71212,41.908218 132.37199,49.826015 150,50 c 17.64465,-0.175079 34.31803,-8.108489 45.58398,-21.689453 z"
         style="display:inline;fill:#2c666e;fill-opacity:1;stroke-width:1.20001"
         id="path65"
         inkscape:label="gear-outline" />
      <g
         id="g68"
         transform="matrix(2.8588712,0,0,2.8588712,-278.47465,-227.51076)"
         inkscape:label="icd"
         style="fill:#07393c;fill-opacity:1">
        <path
           id="path66"
           style="font-weight:bold;font-size:42.6667px;font-family:'Courier New';-inkscape-font-specification:'Courier New Bold';fill:#07393c;fill-opacity:1;stroke-width:30"
           d="m 165.50586,119.41406 c -1.02778,0 -1.76454,0.20074 -2.20898,0.60352 -0.43056,0.38888 -0.64454,0.90213 -0.64454,1.54101 0,0.625 0.21398,1.14019 0.64454,1.54297 0.43055,0.38892 1.09722,0.58965 2,0.60352 v 16.70898 c -0.88889,-0.0139 -1.55556,0.17925 -2,0.58203 -0.43056,0.40278 -0.64454,0.91797 -0.64454,1.54297 0,0.63889 0.21398,1.15972 0.64454,1.5625 0.44444,0.38889 1.1812,0.58203 2.20898,0.58203 h 8.58398 c 2.20833,0 4.00565,-0.32573 5.39454,-0.97851 0.87499,-0.41667 1.80685,-1.0625 2.79296,-1.9375 1,-0.88889 1.80491,-2.02713 2.41602,-3.41602 0.61111,-1.40278 0.91601,-3.00695 0.91602,-4.8125 v -2.04297 c 0,-1.48611 -0.16667,-2.74175 -0.5,-3.76953 -0.33334,-1.02777 -0.83334,-2.0638 -1.5,-3.10547 -0.65278,-1.04167 -1.28342,-1.85981 -1.89454,-2.45703 -0.80555,-0.79166 -1.87565,-1.4451 -3.20898,-1.95898 -1.31945,-0.51389 -2.67361,-0.77149 -4.0625,-0.77149 z m 4.0625,4.29102 h 4.5 c 1.51389,0 2.77148,0.29926 3.77148,0.89648 1.01389,0.58334 1.92296,1.66666 2.72852,3.25 0.51389,1.01389 0.77148,2.1938 0.77148,3.54102 v 2.02148 c 0,1.56945 -0.28602,2.84592 -0.85546,3.83203 -0.56944,0.98611 -1.41602,1.79861 -2.54102,2.4375 -0.86111,0.48611 -2.13954,0.73047 -3.83398,0.73047 h -4.54102 z" />
        <path
           style="font-weight:bold;font-size:42.6667px;font-family:'Courier New';-inkscape-font-specification:'Courier New Bold';fill:#07393c;fill-opacity:1;stroke-width:30"
           d="m 155.9432,120.51763 q 0.39584,-0.54167 0.85417,-0.8125 0.47917,-0.27084 1.02083,-0.27084 0.9375,0 1.52084,0.64584 0.60417,0.64583 0.60417,2.1875 v 3.625 q 0,1.54167 -0.60417,2.20834 -0.58334,0.64583 -1.52084,0.64583 -0.85416,0 -1.375,-0.47917 -0.52083,-0.47917 -0.77083,-1.79167 -0.14583,-0.875 -0.58334,-1.35416 -0.85416,-0.9375 -2.39583,-1.5 -1.52083,-0.56251 -3.0625,-0.56251 -1.91667,0 -3.52084,0.83334 -1.60417,0.83333 -2.83333,2.70833 -1.22917,1.87501 -1.22917,4.45834 v 2.77084 q 0,3.08333 2.22917,5.14583 2.25,2.0625 6.22917,2.0625 2.375,0 4.02083,-0.64583 0.95834,-0.375 2.04167,-1.47917 0.66667,-0.66666 1.04167,-0.85416 0.375,-0.20834 0.85417,-0.20834 0.85416,0 1.5,0.64584 0.64583,0.64583 0.64583,1.52083 0,0.875 -0.875,1.875 -1.27083,1.45834 -3.27083,2.29167 -2.68751,1.125 -5.93751,1.125 -3.79167,0 -6.83334,-1.5625 -2.45833,-1.25 -4.1875,-3.9375 -1.72917,-2.70834 -1.72917,-5.89584 v -2.89584 q 0,-3.33333 1.54167,-6.20833 1.5625,-2.89584 4.3125,-4.45834 2.75001,-1.5625 5.83334,-1.5625 1.85417,0 3.45834,0.4375 1.625,0.41667 3.02083,1.29167 z"
           id="path67" />
        <path
           style="font-weight:bold;font-size:42.6667px;font-family:'Courier New';-inkscape-font-specification:'Courier New Bold';fill:#07393c;fill-opacity:1;stroke-width:30"
           d="m 129.77651,123.70513 v 16.70834 h 4.31251 q 1.54166,0 2.1875,0.60417 0.66667,0.58334 0.66667,1.54167 0,0.9375 -0.66667,1.54167 -0.64584,0.58333 -2.1875,0.58333 h -12.89585 q -1.54166,0 -2.20833,-0.58333 -0.64583,-0.60417 -0.64583,-1.5625 0,-0.9375 0.64583,-1.52084 0.66667,-0.60417 2.20833,-0.60417 h 4.31251 v -16.70834 h -4.31251 q -1.54166,0 -2.20833,-0.58334 -0.64583,-0.60416 -0.64583,-1.5625 0,-0.95833 0.64583,-1.54166 0.66667,-0.60417 2.20833,-0.60417 l 12.89585,0.0208 q 1.54166,0 2.1875,0.58334 0.66667,0.58333 0.66667,1.54166 0,0.95834 -0.66667,1.5625 -0.64584,0.58334 -2.1875,0.58334 z"
           id="path68" />
      </g>
    </g>
  </g>
</svg>
